<?xml version="1.0" encoding="UTF-8"?>
<svg id="Layer_1" xmlns="http://www.w3.org/2000/svg" version="1.1" xmlns:xlink="http://www.w3.org/1999/xlink" viewBox="0 0 1920 697">
  <!-- Generator: Adobe Illustrator 29.3.0, SVG Export Plug-In . SVG Version: 2.1.0 Build 146)  -->
  <defs>
    <style>
      .st0 {
        fill: #fff;
      }

      .st1 {
        mask: url(#mask);
      }

      .st2 {
        fill: url(#linear-gradient1);
      }

      .st3 {
        opacity: .1;
      }

      .st4 {
        fill: url(#linear-gradient);
      }
    </style>
    <linearGradient id="linear-gradient" x1="669.7" y1="795.9" x2="1311.6" y2="-196.8" gradientTransform="translate(0 695.5) scale(1 -1)" gradientUnits="userSpaceOnUse">
      <stop offset="0" stop-color="#d2eaef"/>
      <stop offset="1" stop-color="#35bfd4"/>
    </linearGradient>
    <linearGradient id="linear-gradient1" x1="669.7" y1="795.9" x2="1311.6" y2="-196.8" gradientTransform="translate(0 695.5) scale(1 -1)" gradientUnits="userSpaceOnUse">
      <stop offset="0" stop-color="#d2eaef"/>
      <stop offset="1" stop-color="#86bbf1"/>
    </linearGradient>
    <mask id="mask" x="-134.3" y="-173.1" width="2316.8" height="1117.4" maskUnits="userSpaceOnUse">
      <g id="mask0_35_1655">
        <rect class="st2" y="0" width="1920" height="697"/>
      </g>
    </mask>
  </defs>
  <rect class="st4" y="0" width="1920" height="697"/>
  <g class="st1">
    <g>
      <g class="st3">
        <path class="st0" d="M1472.7,305c-180.3-18.7-207.5,137.7-198.5,219,23.2,129.8,158.2,208,211.8,235.6,42.9,22.1,136.1,112.7,177.4,155.2,163.3,102,219.3-89.9,230.6-123.5,11.3-33.5,19.7-153.4,86.2-244.4,53.2-72.8,79.6-151.7,86.1-182,13.8-136.2-53.3-159.9-82.6-169.7-29.3-9.8-94.9-5.3-206.2,87.2-89.1,74-240.2,46.4-304.9,22.6Z"/>
      </g>
      <g class="st3">
        <path class="st0" d="M65.7,273c-180.3-18.7-207.5,137.7-198.5,219,23.2,129.8,158.2,208,211.8,235.6,42.9,22.1,136.1,112.7,177.4,155.2,163.3,102,219.3-89.9,230.6-123.5,11.3-33.5,19.7-153.4,86.2-244.4,53.2-72.8,79.6-151.7,86.1-182,13.8-136.2-53.3-159.9-82.6-169.7-29.3-9.8-94.9-5.3-206.2,87.2-89.1,74-240.2,46.4-304.9,22.6Z"/>
      </g>
      <g class="st3">
        <path class="st0" d="M1418.4-27.6c-231.3-24-266.3,176.7-254.6,281,29.7,166.5,203,266.8,271.8,302.3,55,28.4,174.6,144.5,227.6,199.1,209.5,130.8,281.4-115.4,295.9-158.4,14.5-43,25.3-196.8,110.7-313.6,68.3-93.4,102.1-194.6,110.5-233.5,17.8-174.7-68.4-205.1-106-217.7-37.6-12.6-121.7-6.8-264.6,111.9-114.3,95-308.2,59.5-391.2,28.9Z"/>
      </g>
    </g>
  </g>
</svg>