<?xml version="1.0" encoding="UTF-8"?>
<svg id="Layer_1" xmlns="http://www.w3.org/2000/svg" version="1.1" xmlns:xlink="http://www.w3.org/1999/xlink" viewBox="0 0 1920 704">
  <!-- Generator: Adobe Illustrator 29.3.0, SVG Export Plug-In . SVG Version: 2.1.0 Build 146)  -->
  <defs>
    <style>
      .st0 {
        fill: #fff;
      }

      .st1 {
        mask: url(#mask);
      }

      .st2 {
        fill: url(#linear-gradient1);
      }

      .st3 {
        opacity: .1;
      }

      .st4 {
        fill: url(#linear-gradient);
      }

      .st5 {
        fill: #307bc4;
      }
    </style>
    <linearGradient id="linear-gradient" x1="665.6" y1="802.2" x2="1316.5" y2="-194.5" gradientTransform="translate(0 703.5) scale(1 -1)" gradientUnits="userSpaceOnUse">
      <stop offset="0" stop-color="#d2eaef"/>
      <stop offset="1" stop-color="#34c2d7"/>
    </linearGradient>
    <linearGradient id="linear-gradient1" x1="665.6" y1="802.2" x2="1316.5" y2="-194.5" gradientTransform="translate(0 703.5) scale(1 -1)" gradientUnits="userSpaceOnUse">
      <stop offset="0" stop-color="#d2eaef"/>
      <stop offset="1" stop-color="#86bbf1"/>
    </linearGradient>
    <mask id="mask" x="-307.5" y="-327.5" width="2717.5" height="1771.8" maskUnits="userSpaceOnUse">
      <g id="mask0_35_1749">
        <rect class="st2" y="0" width="1920" height="704"/>
      </g>
    </mask>
  </defs>
  <rect class="st4" y="0" width="1920" height="704"/>
  <g class="st1">
    <g>
      <g class="st3">
        <path class="st0" d="M-271,1093.7c-51,264.8,108.9,344.1,196.1,350.5,140.7-2.6,246.4-185.2,284.8-258.4,30.7-58.6,142.2-175.6,194.2-226.8,135.7-218.8-56.6-349.9-89.9-375-33.4-25.1-158-67.2-242.3-189.1C4.4,297.4-74,238.6-104.8,221.4c-141-54.3-177.6,40.3-193,81.6-15.4,41.4-22,140.5,56,329.6,62.4,151.3,7.1,370.4-29.2,461.1Z"/>
      </g>
      <g class="st3">
        <path class="st5" d="M-177.4,536.6c-188.3,217.6-65.7,464.3,20,561.2,145,143.1,346.9,66.1,423.8,31.1,61.5-28.1,235.6-32,314.9-30.5,251.1-83,122.1-416,101-476.2-21.2-60.2-126.9-232.4-150.3-444.2-18.7-169.4-68.6-310.8-91.2-360.3-116.1-201.4-202.1-142.8-239.1-116.5-37,26.3-94.7,120.7-112.2,394.7-14,219.3-183.2,385.7-266.9,440.7Z"/>
      </g>
      <g class="st3">
        <path class="st0" d="M1414.5,85.4c-301.4-31.3-346.9,230.2-331.7,366.1,38.7,217,264.5,347.6,354.1,393.8,71.7,37,227.5,188.3,296.5,259.4,272.9,170.4,366.6-150.3,385.5-206.4,18.8-56.1,32.9-256.4,144.2-408.5,89-121.7,133.1-253.6,143.9-304.3,23.1-227.6-89.1-267.2-138.1-283.6-49-16.4-158.6-8.8-344.7,145.8-148.9,123.7-401.6,77.5-509.6,37.7Z"/>
      </g>
    </g>
  </g>
</svg>