<?xml version="1.0" encoding="UTF-8"?>
<svg id="Layer_1" xmlns="http://www.w3.org/2000/svg" version="1.1" viewBox="0 0 49 51">
  <!-- Generator: Adobe Illustrator 29.0.1, SVG Export Plug-In . SVG Version: 2.1.0 Build 192)  -->
  <defs>
    <style>
      .st0 {
        fill: #fff;
      }
    </style>
  </defs>
  <path class="st0" d="M42.6,34.6"/>
  <path class="st0" d="M24.6.6v5s-9,.8-12.2,10.4c-3.2,9.6,4.5,13.6,7.1,14.1s5.1,0,5.1,0v5.2s-7.3,2-13-2.9c-5.6-4.9-5.3-13.1-4.4-17.1S12.5,1.3,24.6.6Z"/>
  <path class="st0" d="M48.9,25.8l-5-.2s-.4-9-9.9-12.6-13.9,2.7-14.3,6.1-.2,5.6-.2,5.6l-5.2-.2s-1.7-7.4,3.3-12.8,13.3-4.9,17.2-3.7c2.5.7,13.9,5.7,14.1,17.9Z"/>
  <path class="st0" d="M24.6,50.4v-5s9.1-.7,12.3-10.3-4.1-13.9-6.8-14.3c-3.3-.4-5,0-5,0l-.2-5.2s7.3-1.9,12.9,3c5.6,4.9,5.2,13.2,4.2,17.1s-5.3,14.1-17.5,14.6Z"/>
  <path class="st0" d="M0,27.3l5-.4s1.5,8.9,11.3,11.3c9.9,2.4,13.7-5,13.7-8.7s-.3-4.6-.3-4.6h5.7s1.7,6.7-2.7,12.7c-4.4,6-12.6,6.4-16.6,5.7S1.7,39.4,0,27.3Z"/>
</svg>