<?xml version="1.0" encoding="UTF-8"?>
<svg id="Layer_1" xmlns="http://www.w3.org/2000/svg" version="1.1" xmlns:xlink="http://www.w3.org/1999/xlink" viewBox="0 0 1920 700">
  <!-- Generator: Adobe Illustrator 29.3.0, SVG Export Plug-In . SVG Version: 2.1.0 Build 146)  -->
  <defs>
    <style>
      .st0 {
        fill: #fff;
      }

      .st1 {
        mask: url(#mask);
      }

      .st2 {
        fill: url(#linear-gradient1);
      }

      .st3 {
        opacity: .1;
      }

      .st4 {
        fill: url(#linear-gradient);
      }
    </style>
    <linearGradient id="linear-gradient" x1="668" y1="799.2" x2="1313.7" y2="-195.2" gradientTransform="translate(0 699.5) scale(1 -1)" gradientUnits="userSpaceOnUse">
      <stop offset="0" stop-color="#d2eaef"/>
      <stop offset="1" stop-color="#34c2d7"/>
    </linearGradient>
    <linearGradient id="linear-gradient1" x1="668" y1="799.2" x2="1313.7" y2="-195.2" gradientTransform="translate(0 699.5) scale(1 -1)" gradientUnits="userSpaceOnUse">
      <stop offset="0" stop-color="#d2eaef"/>
      <stop offset="1" stop-color="#86bbf1"/>
    </linearGradient>
    <mask id="mask" x="-190.5" y="-506.8" width="2258.3" height="1359.9" maskUnits="userSpaceOnUse">
      <g id="mask0_35_1751">
        <rect class="st2" y="0" width="1920" height="700"/>
      </g>
    </mask>
  </defs>
  <rect class="st4" y="0" width="1920" height="700"/>
  <g class="st1">
    <g>
      <g class="st3">
        <path class="st0" d="M-91.4,399c-188.3,153.3-65.7,327.1,20,395.4,145,100.8,346.9,46.6,423.8,21.9,61.5-19.8,235.6-22.6,314.9-21.5,251.1-58.4,122.1-293.1,101-335.5-21.2-42.4-126.9-163.7-150.3-313-18.7-119.4-68.6-219-91.2-253.8-116.1-141.9-202.1-100.6-239.1-82.1-37,18.5-94.7,85-112.2,278.1C161.5,243-7.7,360.2-91.4,399Z"/>
      </g>
      <g class="st3">
        <path class="st0" d="M1684,440.9c203.4,132.6,331.6-37.1,370.5-139.5,51.8-168.8-61.3-344.6-108.2-410.4-37.6-52.6-93.2-217.5-116.4-293.4-132.1-221.4-316.4-27.1-350.3,6-33.9,33.1-117.3,170.7-252.3,238.4-108,54.2-187.7,132-214,164.2-99.8,153.8-34.3,223.1-5.4,252.7,28.9,29.6,109.8,64.3,299.1,22.2,151.4-33.7,314.6,91.8,377.1,159.7Z"/>
      </g>
    </g>
  </g>
</svg>