<?xml version="1.0" encoding="UTF-8"?>
<svg id="Layer_1" xmlns="http://www.w3.org/2000/svg" version="1.1" xmlns:xlink="http://www.w3.org/1999/xlink" viewBox="0 0 1920 632">
  <!-- Generator: Adobe Illustrator 29.0.1, SVG Export Plug-In . SVG Version: 2.1.0 Build 192)  -->
  <defs>
    <style>
      .st0 {
        fill: #fff;
      }

      .st1 {
        mask: url(#mask);
      }

      .st2 {
        fill: url(#linear-gradient1);
      }

      .st3 {
        opacity: .1;
      }

      .st4 {
        fill: url(#linear-gradient);
      }
    </style>
    <linearGradient id="linear-gradient" x1="708.2" y1="747.6" x2="1265" y2="-202.3" gradientTransform="translate(0 634) scale(1 -1)" gradientUnits="userSpaceOnUse">
      <stop offset="0" stop-color="#d2eaef"/>
      <stop offset="1" stop-color="#34c2d7"/>
    </linearGradient>
    <linearGradient id="linear-gradient1" x1="708.2" y1="747.6" x2="1265" y2="-202.3" gradientTransform="translate(0 634) scale(1 -1)" gradientUnits="userSpaceOnUse">
      <stop offset="0" stop-color="#d2eaef"/>
      <stop offset="1" stop-color="#86bbf1"/>
    </linearGradient>
    <mask id="mask" x="-557.1" y="-161.8" width="2769.9" height="1015.4" maskUnits="userSpaceOnUse">
      <g id="mask0_245_372">
        <rect class="st2" width="1920" height="632"/>
      </g>
    </mask>
  </defs>
  <rect class="st4" width="1920" height="632"/>
  <g class="st1">
    <g>
      <g class="st3">
        <path class="st0" d="M1829,785.9c203.4,132.6,331.6-37.1,370.5-139.5,51.8-168.8-61.3-344.6-108.2-410.4-37.6-52.6-93.2-217.5-116.4-293.4-132.1-221.4-316.4-27.1-350.3,6-33.9,33.1-117.3,170.7-252.3,238.4-108,54.2-187.7,132-214,164.2-99.8,153.8-34.3,223.1-5.4,252.7s109.8,64.3,299.1,22.2c151.4-33.7,314.6,91.8,377.1,159.7Z"/>
      </g>
      <g class="st3">
        <path class="st0" d="M167,804.9c203.4,132.6,331.6-37.1,370.5-139.5,51.8-168.8-61.3-344.6-108.2-410.4-37.6-52.6-93.2-217.5-116.4-293.4C180.8-259.7-3.4-65.4-37.4-32.4-71.4.7-154.7,138.3-289.7,206.1c-108,54.2-187.7,132-214,164.2-99.8,153.8-34.3,223.1-5.4,252.7,28.9,29.6,109.8,64.3,299.1,22.2,151.4-33.7,314.6,91.8,377.1,159.7Z"/>
      </g>
    </g>
  </g>
</svg>