<?xml version="1.0" encoding="UTF-8"?>
<svg id="Layer_1" xmlns="http://www.w3.org/2000/svg" version="1.1" xmlns:xlink="http://www.w3.org/1999/xlink" viewBox="0 0 1919 698">
  <!-- Generator: Adobe Illustrator 29.3.0, SVG Export Plug-In . SVG Version: 2.1.0 Build 146)  -->
  <defs>
    <style>
      .st0 {
        fill: #fff;
      }

      .st1 {
        mask: url(#mask);
      }

      .st2 {
        fill: url(#linear-gradient1);
      }

      .st3 {
        opacity: .1;
      }

      .st4 {
        fill: url(#linear-gradient);
      }
    </style>
    <linearGradient id="linear-gradient" x1="668" y1="799.2" x2="1313.7" y2="-195.2" gradientTransform="translate(0 697.5) scale(1 -1)" gradientUnits="userSpaceOnUse">
      <stop offset="0" stop-color="#d2eaef"/>
      <stop offset="1" stop-color="#34c2d7"/>
    </linearGradient>
    <linearGradient id="linear-gradient1" x1="668" y1="799.2" x2="1313.7" y2="-195.2" gradientTransform="translate(0 697.5) scale(1 -1)" gradientUnits="userSpaceOnUse">
      <stop offset="0" stop-color="#d2eaef"/>
      <stop offset="1" stop-color="#86bbf1"/>
    </linearGradient>
    <mask id="mask" x="-359.4" y="-153.6" width="2672.9" height="1268.6" maskUnits="userSpaceOnUse">
      <g id="mask0_200_176">
        <rect class="st2" y="-2" width="1920" height="700"/>
      </g>
    </mask>
  </defs>
  <rect class="st4" y="-2" width="1920" height="700"/>
  <g class="st1">
    <g>
      <g class="st3">
        <path class="st0" d="M1608,602.4c36.5,229.7,239.4,211.7,337.1,173.5,153.2-71.7,205.4-265,221.9-340.6,13.2-60.5,94.6-206,133.6-271.2,72.4-236.1-184.1-242.1-229.4-245-45.3-2.9-196.6,26.4-331.5-26-107.9-41.9-214.4-48.4-254.1-46.5-173.4,27.9-180.5,119-183,158.6-2.5,39.6,24.9,119.3,176.4,226.7,121.2,85.9,137,282.4,128.9,370.4Z"/>
      </g>
      <g class="st3">
        <path class="st0" d="M-54,918.4c36.5,229.7,239.4,211.7,337.1,173.5,153.2-71.7,205.4-265,221.9-340.6,13.2-60.5,94.6-206,133.6-271.2,72.3-236.1-184.1-242.1-229.4-245-45.3-2.9-196.6,26.4-331.5-26-107.9-41.9-214.4-48.4-254.1-46.5-173.4,27.9-180.5,119-183,158.6-2.5,39.6,24.9,119.3,176.4,226.7,121.2,85.9,137,282.4,128.9,370.4Z"/>
      </g>
    </g>
  </g>
</svg>