<?xml version="1.0" encoding="UTF-8"?>
<svg id="Layer_1" xmlns="http://www.w3.org/2000/svg" version="1.1" xmlns:xlink="http://www.w3.org/1999/xlink" viewBox="0 0 1673 450">
  <!-- Generator: Adobe Illustrator 29.3.0, SVG Export Plug-In . SVG Version: 2.1.0 Build 146)  -->
  <defs>
    <style>
      .st0, .st1 {
        fill: #fff;
      }

      .st2 {
        mask: url(#mask);
      }

      .st3 {
        fill: url(#linear-gradient1);
      }

      .st4 {
        opacity: .2;
      }

      .st1 {
        isolation: isolate;
        opacity: .2;
      }

      .st5 {
        fill: url(#linear-gradient);
      }
    </style>
    <linearGradient id="linear-gradient" x1="-13.2" y1="375.5" x2="1656.4" y2="78.7" gradientTransform="translate(0 449.5) scale(1 -1)" gradientUnits="userSpaceOnUse">
      <stop offset="0" stop-color="#34c2d7"/>
      <stop offset="1" stop-color="#d2eaef"/>
    </linearGradient>
    <linearGradient id="linear-gradient1" x1="-13.2" y1="375.5" x2="1656.4" y2="78.7" gradientTransform="translate(0 449.5) scale(1 -1)" gradientUnits="userSpaceOnUse">
      <stop offset="0" stop-color="#86bbf1"/>
      <stop offset="1" stop-color="#d2eaef"/>
    </linearGradient>
    <mask id="mask" x="0" y="-113.7" width="1854.1" height="613.3" maskUnits="userSpaceOnUse">
      <g id="mask0_26_107">
        <rect class="st3" y="0" width="1673" height="450"/>
      </g>
    </mask>
  </defs>
  <rect class="st5" y="0" width="1673" height="450"/>
  <g class="st2">
    <g>
      <g class="st4">
        <path class="st0" d="M1358.1-21.8c-150.2-15.5-172.7,112-165.1,178.3,19.4,105.8,132,169.7,176.7,192.3,35.7,18.1,113.5,92,147.9,126.7,136.1,83.3,182.6-73,191.9-100.4,9.4-27.3,16.3-125,71.6-199.1,44.3-59.3,66.2-123.6,71.6-148.3,11.4-111-44.6-130.4-69-138.4-24.4-8-79-4.4-171.7,70.9-74.1,60.2-200,37.5-253.9,18Z"/>
      </g>
      <path class="st1" d="M0,0h1518.5l-823,450H0V0Z"/>
    </g>
  </g>
</svg>