<?xml version="1.0" encoding="UTF-8"?>
<svg id="Layer_1" xmlns="http://www.w3.org/2000/svg" version="1.1" xmlns:xlink="http://www.w3.org/1999/xlink" viewBox="0 0 1673 449">
  <!-- Generator: Adobe Illustrator 29.3.0, SVG Export Plug-In . SVG Version: 2.1.0 Build 146)  -->
  <defs>
    <style>
      .st0 {
        fill: #fff;
      }

      .st1 {
        mask: url(#mask);
      }

      .st2 {
        fill: url(#linear-gradient1);
      }

      .st3 {
        opacity: .2;
      }

      .st4 {
        opacity: .1;
      }

      .st5 {
        fill: url(#linear-gradient);
      }
    </style>
    <linearGradient id="linear-gradient" x1="-13" y1="374.7" x2="1656.3" y2="77.4" gradientTransform="translate(0 447.9) scale(1 -1)" gradientUnits="userSpaceOnUse">
      <stop offset="0" stop-color="#34c2d7"/>
      <stop offset="1" stop-color="#d2eaef"/>
    </linearGradient>
    <linearGradient id="linear-gradient1" x1="-13" y1="374.7" x2="1656.3" y2="77.4" gradientTransform="translate(0 447.9) scale(1 -1)" gradientUnits="userSpaceOnUse">
      <stop offset="0" stop-color="#86bbf1"/>
      <stop offset="1" stop-color="#d2eaef"/>
    </linearGradient>
    <mask id="mask" x="-193.3" y="-129.1" width="2016.4" height="694.4" maskUnits="userSpaceOnUse">
      <g id="mask0_26_76">
        <rect class="st2" y="0" width="1673" height="449"/>
      </g>
    </mask>
  </defs>
  <rect class="st5" y="0" width="1673" height="449"/>
  <g class="st1">
    <g>
      <g class="st4">
        <path class="st0" d="M1327.1,43.8c-150.2-15.5-172.7,112-165.1,178.3,19.4,105.8,132,169.7,176.7,192.3,35.7,18.1,113.5,92,147.9,126.7,136.1,83.3,182.6-73,191.9-100.4,9.4-27.3,16.3-125,71.6-199.1,44.3-59.3,66.2-123.6,71.6-148.3,11.4-111-44.6-130.4-69-138.4-24.4-8-79-4.4-171.7,70.9-74.1,60.2-200,37.5-253.9,18Z"/>
      </g>
      <g class="st3">
        <path class="st0" d="M-26.9-37.3c-150.2-15.5-172.7,112-165.1,178.3,19.4,105.8,132,169.7,176.6,192.3,35.7,18.1,113.5,92,147.9,126.7,136.1,83.3,182.6-73,191.9-100.4,9.4-27.3,16.3-125,71.6-199.1,44.3-59.3,66.2-123.6,71.6-148.3,11.4-111-44.6-130.4-69-138.4-24.4-8-79-4.4-171.7,70.9C152.8,4.9,26.9-17.8-26.9-37.3Z"/>
      </g>
    </g>
  </g>
</svg>