<?xml version="1.0" encoding="UTF-8"?>
<svg id="Layer_1" xmlns="http://www.w3.org/2000/svg" version="1.1" xmlns:xlink="http://www.w3.org/1999/xlink" viewBox="0 0 1920 700">
  <!-- Generator: Adobe Illustrator 29.3.0, SVG Export Plug-In . SVG Version: 2.1.0 Build 146)  -->
  <defs>
    <style>
      .st0 {
        fill: #fff;
      }

      .st1 {
        mask: url(#mask);
      }

      .st2 {
        fill: url(#linear-gradient1);
      }

      .st3 {
        opacity: .1;
      }

      .st4 {
        fill: url(#linear-gradient);
      }
    </style>
    <linearGradient id="linear-gradient" x1="668" y1="799.2" x2="1313.7" y2="-195.2" gradientTransform="translate(0 699.5) scale(1 -1)" gradientUnits="userSpaceOnUse">
      <stop offset="0" stop-color="#d2eaef"/>
      <stop offset="1" stop-color="#34c2d7"/>
    </linearGradient>
    <linearGradient id="linear-gradient1" x1="668" y1="799.2" x2="1313.7" y2="-195.2" gradientTransform="translate(0 699.5) scale(1 -1)" gradientUnits="userSpaceOnUse">
      <stop offset="0" stop-color="#d2eaef"/>
      <stop offset="1" stop-color="#86bbf1"/>
    </linearGradient>
    <mask id="mask" x="0" y="-273.2" width="2293" height="1775.8" maskUnits="userSpaceOnUse">
      <g id="mask0_240_368">
        <rect class="st2" y="0" width="1920" height="700"/>
      </g>
    </mask>
  </defs>
  <rect class="st4" y="0" width="1920" height="700"/>
  <g class="st1">
    <g>
      <g class="st3">
        <path class="st0" d="M1297.5-83.6c-301.4-31.3-346.9,230.2-331.7,366.1,38.7,217,264.5,347.6,354.1,393.8,71.7,37,227.5,188.3,296.5,259.4,272.9,170.4,366.6-150.3,385.5-206.4,18.8-56.1,32.9-256.4,144.2-408.5,89-121.7,133.1-253.6,143.9-304.3,23.1-227.6-89.1-267.2-138.1-283.6-49-16.4-158.6-8.8-344.7,145.8-148.9,123.7-401.6,77.5-509.6,37.7Z"/>
      </g>
      <g class="st3">
        <path class="st0" d="M1007.8,979.6c-202.8,225.1-18.3,415.9,100.4,483.7,198.1,96.5,436.7-9,526.8-54.2,72.1-36.2,286.2-73,384.2-86.9,298.5-120.2,94.5-384.8,60.2-433-34.2-48.2-187.8-177.6-245.2-357.1-46-143.6-126.6-256.9-161.1-295.5-170.3-152.8-268.5-85.3-310.6-55.4-42.1,29.9-100.5,123-85.1,364.5,12.3,193.2-173.9,370.2-269.7,434Z"/>
      </g>
    </g>
  </g>
</svg>